<svg width="306" height="60" viewBox="0 0 306 60" fill="none" xmlns="http://www.w3.org/2000/svg">
<path d="M24.208 53.36C21.4773 54.9813 18.5333 55.792 15.376 55.792C12.2187 55.792 9.808 55.28 8.144 54.256C6.48 53.2747 5.648 52.016 5.648 50.48C5.648 48.9867 6.24533 47.7707 7.44 46.832C8.67733 45.936 10.512 45.488 12.944 45.488C16.272 45.488 19.2587 46.7253 21.904 49.2C22.416 47.6213 22.8427 45.872 23.184 43.952L23.568 41.584H20.88V40.176H23.824L28.688 12.4C28.9013 10.8213 29.2 9.54133 29.584 8.56C20.752 9.24267 13.9253 11.12 9.104 14.192C4.32533 17.2213 1.936 21.2107 1.936 26.16C1.936 28.3787 2.704 30.256 4.24 31.792C5.30667 32.816 6.71467 33.6053 8.464 34.16C10.2133 34.672 11.6427 34.9707 12.752 35.056C13.904 35.0987 14.5227 35.0773 14.608 34.992V36.336C9.57333 36.336 5.84 35.1413 3.408 32.752C1.616 31.088 0.72 28.8907 0.72 26.16C0.72 20.7413 3.25867 16.4107 8.336 13.168C13.4133 9.88266 20.6667 7.92 30.096 7.28C32.1013 2.8 35.8347 0.559998 41.296 0.559998V2.224C40.2293 2.352 39.4827 2.77866 39.056 3.504C38.672 4.22933 38.3307 5.40267 38.032 7.024C41.5733 7.06666 44.6027 7.51466 47.12 8.368C49.68 9.17867 51.6213 10.2667 52.944 11.632C55.4613 14.2347 56.72 17.2853 56.72 20.784C56.72 23.472 56.208 25.9253 55.184 28.144C54.2027 30.32 52.944 32.112 51.408 33.52C49.872 34.928 47.9947 36.144 45.776 37.168C42.1067 38.9173 37.6907 40.1547 32.528 40.88V41.008C31.632 46 29.2427 49.8613 25.36 52.592C27.1093 54.1707 29.0293 55.408 31.12 56.304C33.2107 57.2 35.8987 57.648 39.184 57.648V59.056C35.6427 59.056 32.72 58.544 30.416 57.52C28.1547 56.5387 26.0853 55.152 24.208 53.36ZM55.056 20.784C55.056 17.0293 53.6267 14.0213 50.768 11.76C47.952 9.49867 43.664 8.32533 37.904 8.24C36.3253 19.8453 34.64 30.2347 32.848 39.408C47.6533 37.2747 55.056 31.0667 55.056 20.784ZM21.392 50.608C20.0267 49.328 18.7253 48.3467 17.488 47.664C16.2507 47.024 14.736 46.704 12.944 46.704C11.1947 46.704 9.78667 47.024 8.72 47.664C7.696 48.3467 7.184 49.264 7.184 50.416C7.184 51.6107 7.86667 52.592 9.232 53.36C10.5973 54.1707 12.24 54.576 14.16 54.576C16.08 54.576 17.5947 54.2987 18.704 53.744C19.856 53.1893 20.752 52.144 21.392 50.608ZM59.5975 23.408C60.8775 21.872 62.4775 21.104 64.3975 21.104C66.3602 21.104 67.8748 21.5947 68.9415 22.576C70.0082 23.5573 70.5415 24.944 70.5415 26.736V27.12C72.4615 23.1093 74.9575 21.104 78.0295 21.104C81.3148 21.104 82.9575 22.8107 82.9575 26.224C82.9575 27.632 82.4882 29.1253 81.5495 30.704C80.6108 32.2827 79.6722 33.7973 78.7335 35.248C77.7948 36.656 77.3255 37.9147 77.3255 39.024H75.7895C75.7895 37.4453 76.7068 35.312 78.5415 32.624C80.3762 29.936 81.2935 27.8667 81.2935 26.416C81.2935 24.9227 80.9948 23.92 80.3975 23.408C79.8428 22.8533 78.9895 22.576 77.8375 22.576C76.7282 22.576 75.6188 23.0667 74.5095 24.048C73.4428 25.0293 72.5468 26.2667 71.8215 27.76C70.6695 29.9787 69.9015 31.792 69.5175 33.2V33.264L67.2135 46H59.5335L63.7575 22.384C62.4775 22.512 61.4108 23.1093 60.5575 24.176L59.5975 23.408ZM96.116 44.272C94.836 45.808 93.236 46.576 91.316 46.576C89.396 46.576 87.8813 46.0853 86.772 45.104C85.7053 44.1227 85.172 42.8427 85.172 41.264C85.172 40.7093 85.5133 38.384 86.196 34.288L88.308 22.832H85.62L85.748 21.68H88.5C91.6573 21.68 93.9827 21.552 95.476 21.296L96.372 21.104L91.956 45.296C93.236 45.168 94.3027 44.5707 95.156 43.504L96.116 44.272ZM90.484 14.96C89.588 14.064 89.14 12.976 89.14 11.696C89.14 10.416 89.588 9.328 90.484 8.432C91.38 7.49333 92.468 7.024 93.748 7.024C95.028 7.024 96.116 7.49333 97.012 8.432C97.9507 9.328 98.42 10.416 98.42 11.696C98.42 12.976 97.9507 14.064 97.012 14.96C96.116 15.856 95.028 16.304 93.748 16.304C92.468 16.304 91.38 15.856 90.484 14.96ZM105.792 44.912C110.016 44.912 112.128 41.7973 112.128 35.568C112.128 34.032 111.893 32.2187 111.424 30.128C110.997 28.0373 110.741 26.736 110.656 26.224C108.053 28.912 105.131 30.5333 101.888 31.088V29.552C104.96 28.8693 107.84 27.12 110.528 24.304V24.048C110.528 23.024 110.677 22.0213 110.976 21.04C111.275 20.0587 111.573 19.3333 111.872 18.864L112.32 18.16H113.856C113.856 20.0373 114.155 21.7653 114.752 23.344C115.349 24.88 116.011 26.1387 116.736 27.12C117.461 28.0587 118.123 29.3173 118.72 30.896C119.317 32.432 119.616 34.1387 119.616 36.016C119.616 39.0453 118.464 41.5627 116.16 43.568C113.899 45.5733 111.168 46.576 107.968 46.576C104.768 46.576 102.336 45.8507 100.672 44.4C99.0507 42.9493 98.24 41.2853 98.24 39.408C98.24 37.488 98.7093 36.1227 99.648 35.312C100.587 34.4587 101.696 34.032 102.976 34.032C104.256 34.032 105.301 34.4587 106.112 35.312C106.965 36.1227 107.392 37.1893 107.392 38.512C107.392 39.792 106.987 40.88 106.176 41.776C105.365 42.672 104.32 43.12 103.04 43.12C102.485 43.12 101.909 43.0347 101.312 42.864C102.251 44.2293 103.744 44.912 105.792 44.912ZM126.994 21.68L128.722 12.208C131.879 12.208 134.226 12.08 135.762 11.824L136.594 11.632C135.997 14.6187 135.335 17.968 134.61 21.68H142.546L142.418 22.832H134.418C132.285 33.84 131.218 40.4747 131.218 42.736C131.218 44.1013 131.943 44.784 133.394 44.784C134.845 44.784 136.167 43.8667 137.362 42.032C138.557 40.1973 139.41 38.2133 139.922 36.08L141.074 36.464C139.495 43.2053 136.231 46.576 131.282 46.576C129.234 46.576 127.527 46.0213 126.162 44.912C124.797 43.76 124.114 42.1813 124.114 40.176C124.114 38.128 124.989 32.3467 126.738 22.832H123.602L123.73 21.68H126.994ZM166.243 46.576C162.488 46.576 160.44 44.9333 160.099 41.648C158.222 44.9333 155.854 46.576 152.995 46.576C150.136 46.576 147.854 45.7227 146.147 44.016C144.483 42.2667 143.651 39.8347 143.651 36.72C143.651 31.856 144.846 28.0373 147.235 25.264C149.624 22.4907 152.718 21.104 156.515 21.104C159.63 21.104 161.699 22.576 162.723 25.52C162.936 24.24 163.171 22.96 163.427 21.68C166.584 21.68 168.931 21.552 170.467 21.296L171.299 21.104L166.883 45.296C168.163 45.168 169.23 44.5707 170.083 43.504L171.043 44.272C169.763 45.808 168.163 46.576 166.243 46.576ZM150.883 39.984C150.883 41.904 151.118 43.248 151.587 44.016C152.099 44.7413 152.867 45.104 153.891 45.104C154.915 45.104 155.96 44.5493 157.027 43.44C158.435 41.9893 159.566 40.1547 160.419 37.936C160.547 37.3813 160.782 36.0587 161.123 33.968C161.507 31.8347 161.827 30.0853 162.083 28.72C161.955 27.0987 161.507 25.6907 160.739 24.496C159.971 23.3013 159.011 22.704 157.859 22.704C155.768 22.704 154.083 24.5813 152.803 28.336C151.523 32.048 150.883 35.9307 150.883 39.984ZM195.707 52.976C197.243 52.976 198.566 52.3787 199.675 51.184L200.571 51.952C199.547 53.4027 197.926 54.128 195.707 54.128C194.768 54.128 193.808 54.0213 192.827 53.808C189.926 56.4533 186.214 57.776 181.691 57.776C179.003 57.776 176.912 57.3067 175.419 56.368C173.968 55.472 173.243 54.2773 173.243 52.784C173.243 51.3333 173.691 50.16 174.587 49.264C175.526 48.4107 177.168 47.984 179.515 47.984C181.862 47.984 184.955 48.944 188.795 50.864L190.779 40.24C188.859 43.7813 186.384 45.552 183.355 45.552C177.552 45.552 174.651 42.6933 174.651 36.976C174.651 32.1973 175.846 28.3573 178.235 25.456C180.667 22.5547 183.76 21.104 187.515 21.104C189.691 21.104 191.376 21.7653 192.571 23.088C192.912 23.472 193.254 24.048 193.595 24.816L194.171 21.68C197.328 21.68 199.632 21.552 201.083 21.296L201.915 21.104L197.691 44.72C197.051 48.048 195.771 50.736 193.851 52.784C194.406 52.912 195.024 52.976 195.707 52.976ZM181.883 38.96C181.883 40.9227 182.075 42.2453 182.459 42.928C182.843 43.568 183.568 43.888 184.635 43.888C185.702 43.888 186.79 43.312 187.899 42.16C189.008 41.008 189.798 39.9413 190.267 38.96C190.779 37.936 191.206 36.9547 191.547 36.016L192.891 28.656V28.208C192.891 24.2827 191.099 22.32 187.515 22.32C186.15 22.32 184.87 24.176 183.675 27.888C182.48 31.6 181.883 35.2907 181.883 38.96ZM181.435 56.496C184.848 56.496 187.152 55.024 188.347 52.08L187.451 51.632C186.939 51.376 186.619 51.2053 186.491 51.12C186.406 51.0773 186.128 50.9493 185.659 50.736C185.19 50.5227 184.848 50.3733 184.635 50.288C184.422 50.2453 184.08 50.1387 183.611 49.968C183.184 49.7973 182.822 49.6693 182.523 49.584C182.224 49.5413 181.883 49.4773 181.499 49.392C180.859 49.264 179.92 49.2 178.683 49.2C177.446 49.2 176.443 49.4987 175.675 50.096C174.95 50.6933 174.587 51.568 174.587 52.72C174.587 53.872 175.206 54.7893 176.443 55.472C177.68 56.1547 179.344 56.496 181.435 56.496ZM204.785 23.408C206.065 21.872 207.665 21.104 209.585 21.104C211.548 21.104 213.062 21.5947 214.129 22.576C215.196 23.5573 215.729 24.944 215.729 26.736V27.12C217.649 23.1093 220.145 21.104 223.217 21.104C226.502 21.104 228.145 22.8107 228.145 26.224C228.145 27.632 227.676 29.1253 226.737 30.704C225.798 32.2827 224.86 33.7973 223.921 35.248C222.982 36.656 222.513 37.9147 222.513 39.024H220.977C220.977 37.4453 221.894 35.312 223.729 32.624C225.564 29.936 226.481 27.8667 226.481 26.416C226.481 24.9227 226.182 23.92 225.585 23.408C225.03 22.8533 224.177 22.576 223.025 22.576C221.916 22.576 220.806 23.0667 219.697 24.048C218.63 25.0293 217.734 26.2667 217.009 27.76C215.857 29.9787 215.089 31.792 214.705 33.2V33.264L212.401 46H204.721L208.945 22.384C207.665 22.512 206.598 23.1093 205.745 24.176L204.785 23.408ZM252.056 46.576C248.301 46.576 246.253 44.9333 245.912 41.648C244.034 44.9333 241.666 46.576 238.808 46.576C235.949 46.576 233.666 45.7227 231.96 44.016C230.296 42.2667 229.464 39.8347 229.464 36.72C229.464 31.856 230.658 28.0373 233.048 25.264C235.437 22.4907 238.53 21.104 242.328 21.104C245.442 21.104 247.512 22.576 248.536 25.52C248.749 24.24 248.984 22.96 249.24 21.68C252.397 21.68 254.744 21.552 256.28 21.296L257.112 21.104L252.696 45.296C253.976 45.168 255.042 44.5707 255.896 43.504L256.856 44.272C255.576 45.808 253.976 46.576 252.056 46.576ZM236.696 39.984C236.696 41.904 236.93 43.248 237.4 44.016C237.912 44.7413 238.68 45.104 239.704 45.104C240.728 45.104 241.773 44.5493 242.84 43.44C244.248 41.9893 245.378 40.1547 246.232 37.936C246.36 37.3813 246.594 36.0587 246.936 33.968C247.32 31.8347 247.64 30.0853 247.896 28.72C247.768 27.0987 247.32 25.6907 246.552 24.496C245.784 23.3013 244.824 22.704 243.672 22.704C241.581 22.704 239.896 24.5813 238.616 28.336C237.336 32.048 236.696 35.9307 236.696 39.984ZM284.848 45.296C285.872 45.296 286.938 44.6987 288.048 43.504L289.007 44.272C288.709 44.8693 288.048 45.4027 287.024 45.872C286 46.3413 284.869 46.576 283.632 46.576C279.749 46.576 277.808 44.8267 277.808 41.328C277.808 39.8347 278.192 37.168 278.96 33.328C279.728 29.488 280.112 26.9707 280.112 25.776C280.112 23.9413 279.237 23.024 277.488 23.024C274.842 23.024 272.624 26.416 270.832 33.2L268.528 46H260.848L265.072 22.384C263.792 22.512 262.725 23.1093 261.872 24.176L260.911 23.408C262.192 21.872 263.792 21.104 265.712 21.104C267.674 21.104 269.189 21.5947 270.256 22.576C271.322 23.5573 271.856 24.944 271.856 26.736V26.928C273.52 23.0453 276.037 21.104 279.408 21.104C281.797 21.104 283.674 21.7653 285.04 23.088C286.448 24.368 287.216 26.1813 287.344 28.528C288.154 26.1813 289.178 24.368 290.416 23.088C291.653 21.7653 293.445 21.104 295.792 21.104C298.138 21.104 300.016 21.8293 301.424 23.28C302.832 24.688 303.536 26.6507 303.536 29.168C303.536 30.4907 303.13 33.0507 302.32 36.848C301.509 40.6027 301.061 43.4187 300.976 45.296C302 45.296 303.066 44.6987 304.176 43.504L305.136 44.272C304.837 44.8693 304.176 45.4027 303.152 45.872C302.128 46.3413 300.997 46.576 299.76 46.576C295.877 46.576 293.936 44.8267 293.936 41.328C293.936 39.8347 294.32 37.168 295.088 33.328C295.856 29.488 296.24 26.9707 296.24 25.776C296.24 23.9413 295.365 23.024 293.616 23.024C290.544 23.024 288.069 27.5893 286.192 36.72C285.381 40.6027 284.933 43.4613 284.848 45.296Z" fill="black"/>
</svg>
